<svg width="500" height="300" viewBox="0 0 500 300" xmlns="http://www.w3.org/2000/svg">
  <!-- Background -->
  <rect width="500" height="300" fill="#f3f4f6" />
  
  <!-- Person silhouette -->
  <path d="M250 50 C270 50, 290 60, 290 90 C290 110, 280 120, 270 125 L270 180 L290 240 L270 240 L260 200 L240 200 L230 240 L210 240 L230 180 L230 125 C220 120, 210 110, 210 90 C210 60, 230 50, 250 50 Z" fill="#9ca3af" />
  
  <!-- Clothing overlay -->
  <path d="M230 125 L230 180 L210 240 L230 240 L240 200 L260 200 L270 240 L290 240 L270 180 L270 125 L250 140 Z" fill="#6366f1" opacity="0.7" />
  
  <!-- Text -->
  <text x="250" y="280" font-family="Arial" font-size="16" text-anchor="middle" fill="#4b5563">Virtual Try-On Demo</text>
  
  <!-- Icons -->
  <circle cx="200" cy="30" r="10" fill="#6366f1" />
  <circle cx="300" cy="30" r="10" fill="#6366f1" />
  
  <!-- Decorative elements -->
  <rect x="150" y="260" width="200" height="2" fill="#d1d5db" />
</svg>