<svg width="800" height="1000" viewBox="0 0 800 1000" xmlns="http://www.w3.org/2000/svg">
  <!-- Purple Dress -->
  <path d="M200,200 L350,150 L450,150 L600,200 L650,350 L600,350 L650,900 L400,950 L150,900 L200,350 L150,350 Z" 
        fill="#8b5cf6" stroke="#6d28d9" stroke-width="5" />
  
  <!-- Neckline -->
  <path d="M350,150 C375,200 425,200 450,150" fill="none" stroke="#6d28d9" stroke-width="5" />
  
  <!-- Waistline -->
  <path d="M250,450 C400,500 550,450 550,450" fill="none" stroke="#6d28d9" stroke-width="5" />
  
  <!-- Sleeve lines -->
  <path d="M200,350 L150,350" fill="none" stroke="#6d28d9" stroke-width="5" />
  <path d="M600,350 L650,350" fill="none" stroke="#6d28d9" stroke-width="5" />
  
  <!-- Dress pattern -->
  <circle cx="300" cy="600" r="20" fill="#a78bfa" stroke="#6d28d9" stroke-width="2" />
  <circle cx="500" cy="600" r="20" fill="#a78bfa" stroke="#6d28d9" stroke-width="2" />
  <circle cx="400" cy="700" r="20" fill="#a78bfa" stroke="#6d28d9" stroke-width="2" />
  <circle cx="250" cy="800" r="20" fill="#a78bfa" stroke="#6d28d9" stroke-width="2" />
  <circle cx="550" cy="800" r="20" fill="#a78bfa" stroke="#6d28d9" stroke-width="2" />
</svg>