<svg width="800" height="1000" viewBox="0 0 800 1000" xmlns="http://www.w3.org/2000/svg">
  <!-- Black Jacket -->
  <path d="M200,200 L350,150 L450,150 L600,200 L650,350 L600,350 L600,800 L200,800 L200,350 L150,350 Z" 
        fill="#1f2937" stroke="#111827" stroke-width="5" />
  
  <!-- Collar -->
  <path d="M350,150 L375,250 L400,175 L425,250 L450,150" fill="#1f2937" stroke="#111827" stroke-width="5" />
  
  <!-- Zipper -->
  <path d="M400,175 L400,800" fill="none" stroke="#9ca3af" stroke-width="5" stroke-dasharray="10,5" />
  
  <!-- Pockets -->
  <path d="M250,500 L350,500 L350,600 L250,600 Z" fill="#374151" stroke="#111827" stroke-width="5" />
  <path d="M450,500 L550,500 L550,600 L450,600 Z" fill="#374151" stroke="#111827" stroke-width="5" />
  
  <!-- Sleeve lines -->
  <path d="M200,350 L150,350" fill="none" stroke="#111827" stroke-width="5" />
  <path d="M600,350 L650,350" fill="none" stroke="#111827" stroke-width="5" />
</svg>